<svg width="445" height="361" viewBox="0 0 445 361" fill="none" xmlns="http://www.w3.org/2000/svg">
<g clip-path="url(#clip0_87_661)">
<path d="M355.255 65.757C352.943 91.2327 346.357 118.095 336.029 144.014C323.256 176.066 305.806 204.298 285.564 225.656L284.44 224.676C304.585 203.421 321.956 175.314 334.675 143.394C346.17 114.549 353.007 84.5316 354.456 56.5998L355.891 56.8402C355.739 59.7901 355.527 62.7624 355.255 65.757Z" fill="#F2F2F2"/>
<path d="M364.462 213.715C336.03 258.957 301.536 291.283 267.334 304.737L266.642 303.468C300.608 290.107 334.899 257.947 363.201 212.911L364.462 213.715Z" fill="#F2F2F2"/>
<path d="M354.565 97.4752C352.253 122.951 345.667 149.813 335.339 175.732C322.567 207.784 305.116 236.016 284.874 257.374L283.75 256.395C303.895 235.139 321.266 207.032 333.985 175.113C345.48 146.267 352.317 116.25 353.766 88.3179L355.201 88.5583C355.049 91.5083 354.837 94.4806 354.565 97.4752Z" fill="#F2F2F2"/>
<path d="M35.3843 162.879H16.7297C16.3312 162.88 15.9376 162.79 15.5785 162.617C15.2194 162.444 14.9042 162.192 14.6564 161.88C14.4117 161.576 14.239 161.22 14.1513 160.839C14.0637 160.459 14.0633 160.063 14.1504 159.682C15.927 151.841 15.8154 143.69 13.8247 135.901C13.6988 135.388 13.7293 134.849 13.9121 134.354C14.095 133.858 14.422 133.429 14.8509 133.121C24.4431 126.22 31.9973 126.421 37.3037 133.717C37.5429 134.049 37.7018 134.433 37.768 134.837C39.1858 143.363 39.2643 152.058 38.0005 160.607C37.9127 161.238 37.5993 161.816 37.1182 162.234C36.6372 162.651 36.0212 162.881 35.3843 162.879Z" fill="#E6E6E6"/>
<path d="M29.6009 144.194H23.1837C22.8288 144.194 22.4885 144.053 22.2376 143.802C21.9867 143.551 21.8457 143.21 21.8457 142.855C21.8457 142.501 21.9867 142.16 22.2376 141.909C22.4885 141.658 22.8288 141.517 23.1837 141.517H29.6009C29.9553 141.518 30.2949 141.659 30.5452 141.91C30.7955 142.161 30.9361 142.501 30.9361 142.855C30.9361 143.21 30.7955 143.55 30.5452 143.801C30.2949 144.052 29.9553 144.193 29.6009 144.194Z" fill="white"/>
<path d="M29.6009 148.887H23.1837C22.8288 148.887 22.4885 148.746 22.2376 148.495C21.9867 148.244 21.8457 147.904 21.8457 147.549C21.8457 147.194 21.9867 146.854 22.2376 146.603C22.4885 146.352 22.8288 146.211 23.1837 146.211H29.6009C29.9553 146.211 30.2949 146.353 30.5452 146.604C30.7955 146.854 30.9361 147.194 30.9361 147.549C30.9361 147.903 30.7955 148.243 30.5452 148.494C30.2949 148.745 29.9553 148.886 29.6009 148.887Z" fill="white"/>
<path d="M29.6009 153.581H23.1837C22.8288 153.581 22.4885 153.44 22.2376 153.189C21.9867 152.938 21.8457 152.597 21.8457 152.242C21.8457 151.887 21.9867 151.547 22.2376 151.296C22.4885 151.045 22.8288 150.904 23.1837 150.904H29.6009C29.9553 150.905 30.2949 151.046 30.5452 151.297C30.7955 151.548 30.9361 151.888 30.9361 152.242C30.9361 152.597 30.7955 152.937 30.5452 153.188C30.2949 153.439 29.9553 153.58 29.6009 153.581Z" fill="white"/>
<path d="M374.412 246.187H355.757C355.359 246.188 354.965 246.099 354.606 245.926C354.247 245.753 353.932 245.501 353.684 245.189C353.439 244.884 353.266 244.528 353.179 244.148C353.091 243.767 353.091 243.372 353.178 242.991C354.954 235.15 354.843 226.999 352.852 219.209C352.726 218.696 352.757 218.158 352.94 217.662C353.122 217.167 353.449 216.737 353.878 216.429C363.471 209.529 371.025 209.729 376.331 217.026C376.57 217.358 376.729 217.742 376.795 218.146C378.213 226.672 378.292 235.366 377.028 243.916C376.94 244.547 376.627 245.125 376.146 245.543C375.665 245.96 375.049 246.189 374.412 246.187Z" fill="#E6E6E6"/>
<path d="M368.628 227.502H362.211C361.857 227.502 361.517 227.36 361.267 227.109C361.017 226.859 360.876 226.519 360.876 226.164C360.876 225.81 361.017 225.47 361.267 225.219C361.517 224.968 361.857 224.827 362.211 224.826H368.628C368.983 224.826 369.324 224.967 369.574 225.218C369.825 225.469 369.966 225.809 369.966 226.164C369.966 226.519 369.825 226.859 369.574 227.11C369.324 227.361 368.983 227.502 368.628 227.502Z" fill="white"/>
<path d="M368.628 232.196H362.211C361.857 232.195 361.517 232.054 361.267 231.803C361.017 231.552 360.876 231.212 360.876 230.858C360.876 230.503 361.017 230.163 361.267 229.912C361.517 229.661 361.857 229.52 362.211 229.519H368.628C368.983 229.519 369.324 229.66 369.574 229.911C369.825 230.162 369.966 230.503 369.966 230.858C369.966 231.213 369.825 231.553 369.574 231.804C369.324 232.055 368.983 232.196 368.628 232.196Z" fill="white"/>
<path d="M368.628 236.889H362.211C361.857 236.889 361.517 236.747 361.267 236.496C361.017 236.245 360.876 235.906 360.876 235.551C360.876 235.197 361.017 234.857 361.267 234.606C361.517 234.355 361.857 234.214 362.211 234.213H368.628C368.983 234.213 369.324 234.354 369.574 234.605C369.825 234.856 369.966 235.196 369.966 235.551C369.966 235.906 369.825 236.246 369.574 236.497C369.324 236.748 368.983 236.889 368.628 236.889Z" fill="white"/>
<path d="M117.019 317.556L115.856 301.371C108.235 297.56 99.7984 295.668 91.28 295.858C103.264 305.124 102.304 323.642 110.604 336.315C113.223 340.248 116.693 343.541 120.757 345.95C124.822 348.36 129.376 349.823 134.082 350.232L144.056 355.972C145.197 348.429 144.69 340.729 142.569 333.402C140.448 326.074 136.764 319.294 131.771 313.528C128.938 310.321 125.713 307.483 122.171 305.082C119.991 311.343 117.019 317.556 117.019 317.556Z" fill="#F2F2F2"/>
<path d="M327.981 319.903L329.144 303.717C336.766 299.907 345.202 298.014 353.72 298.205C341.736 307.47 342.696 325.989 334.396 338.662C331.777 342.595 328.307 345.888 324.243 348.297C320.178 350.706 315.624 352.17 310.918 352.579L300.944 358.318C299.803 350.776 300.31 343.076 302.431 335.748C304.552 328.421 308.236 321.641 313.229 315.874C316.062 312.667 319.287 309.83 322.829 307.429C325.009 313.689 327.981 319.903 327.981 319.903Z" fill="#F2F2F2"/>
<path d="M167.355 157.711L150.549 131.313L170.01 120.889L175.118 141.029L211.106 160.481C212.527 159.969 214.066 159.882 215.535 160.23C217.004 160.579 218.341 161.347 219.381 162.442C220.421 163.537 221.121 164.91 221.394 166.396C221.667 167.881 221.502 169.414 220.919 170.807C220.337 172.201 219.361 173.394 218.112 174.243C216.863 175.091 215.394 175.558 213.884 175.586C212.374 175.613 210.889 175.201 209.609 174.399C208.33 173.597 207.311 172.44 206.677 171.069L167.355 157.711Z" fill="#A0616A"/>
<path d="M138.271 99.6511C132.991 107.406 151.756 135.593 151.756 135.593C152.67 133.622 161.409 155.755 162.873 154.447C167.032 150.731 173.544 140.381 177.164 139.919C179.234 139.656 172.363 124.972 172.363 124.972C172.363 124.972 169.223 116.301 164.962 105.225C163.815 102.071 161.89 99.2587 159.364 97.0496C156.838 94.8405 153.795 93.3065 150.517 92.5903C150.517 92.5903 143.552 91.8966 138.271 99.6511Z" fill="#3F3D56"/>
<path d="M138.529 352.296L146.51 352.296L150.307 321.504L138.527 321.504L138.529 352.296Z" fill="#A0616A"/>
<path d="M136.493 349.69L138.739 349.69L147.51 346.122L152.211 349.689H152.212C154.868 349.689 157.416 350.745 159.294 352.624C161.173 354.503 162.228 357.051 162.229 359.708V360.034L136.493 360.035L136.493 349.69Z" fill="#2F2E41"/>
<path d="M175.609 352.296L183.59 352.296L187.387 321.504L175.607 321.504L175.609 352.296Z" fill="#A0616A"/>
<path d="M173.573 349.69L175.819 349.69L184.59 346.122L189.291 349.689H189.292C191.948 349.689 194.496 350.745 196.374 352.624C198.253 354.503 199.308 357.051 199.308 359.708V360.034L173.573 360.035L173.573 349.69Z" fill="#2F2E41"/>
<path d="M179.063 183.955L127.149 185.253C117.29 190.609 117.14 202.202 120.37 215.967C120.37 215.967 119.28 224.148 121.461 226.33C123.642 228.511 124.733 228.511 123.642 232.329C122.552 236.147 128.314 242.383 127.614 243.083C126.914 243.783 125.278 247.601 125.278 247.601L130.731 278.689C130.731 278.689 134.548 332.685 135.639 333.776C136.729 334.866 137.82 333.776 136.729 336.503C135.639 339.23 134.548 338.139 135.639 339.23C136.605 340.272 137.515 341.364 138.365 342.502H151.549C151.549 342.502 152.543 337.048 152.543 336.503C152.543 335.957 153.633 332.685 153.633 332.139C153.633 331.594 152.669 330.63 152.669 330.63C152.336 329.521 152.111 328.383 151.997 327.231C151.997 326.14 148.726 284.143 148.726 284.143L155.269 229.602L171.083 283.052C171.083 283.052 171.083 329.958 172.173 331.049C173.264 332.139 173.264 331.594 172.718 333.776C172.173 335.957 169.992 335.412 171.628 337.048C173.264 338.684 173.809 335.957 173.264 338.684L172.719 341.411L189.077 341.645C189.077 341.645 191.258 337.048 190.168 335.412C189.077 333.776 189.143 334.222 190.473 331.545C191.804 328.867 192.349 328.322 191.804 327.776C191.258 327.231 191.258 324.33 191.258 324.33L188.532 272.144C188.532 272.144 187.987 217.058 187.987 215.422C187.946 214.58 188.101 213.74 188.44 212.968V210.747L186.351 202.877L179.063 183.955Z" fill="#2F2E41"/>
<path d="M155.943 86.647C159.418 88.7134 161.497 92.51 162.69 96.3734C164.899 103.526 166.229 110.921 166.65 118.396L167.91 140.772L183.52 188.419C169.992 199.869 119.14 191.021 119.14 191.021C119.14 191.021 117.579 190.501 119.14 188.939C120.701 187.378 122.221 188.761 120.66 187.2C119.099 185.639 120.175 187.378 120.695 185.817C121.216 184.255 120.695 185.296 120.175 184.776C119.655 184.255 124.203 179.572 124.203 179.572L120.041 152.222L114.837 97.0557C121.081 89.2492 133.639 84.6473 133.639 84.6473L136.883 78.8057L153.106 80.1038L155.943 86.647Z" fill="#3F3D56"/>
<path d="M261.308 196.81L292.336 165.295L300.511 140.089L287.356 134.767C280.839 141.342 274.13 161.47 274.13 161.47L252.953 189.899C252.783 189.962 252.615 190.029 252.449 190.107C251.474 190.568 250.634 191.272 250.011 192.152C249.387 193.032 249.001 194.058 248.89 195.13C248.779 196.203 248.946 197.286 249.376 198.276C249.806 199.265 250.483 200.126 251.343 200.777C252.203 201.428 253.216 201.845 254.285 201.99C255.353 202.134 256.441 202.001 257.443 201.602C258.445 201.203 259.327 200.553 260.004 199.713C260.681 198.874 261.13 197.874 261.308 196.81Z" fill="#FFB8B8"/>
<path d="M283.767 137.65L300.404 142.464L300.466 142.452C306.581 141.264 311.418 131.1 314.399 122.782C315.38 120.038 315.282 117.024 314.127 114.35C312.971 111.675 310.843 109.539 308.173 108.374C306.198 107.528 304.025 107.251 301.901 107.575C299.776 107.899 297.785 108.811 296.151 110.208L287.857 117.352L283.767 137.65Z" fill="#0071FF"/>
<path d="M269.533 351.36L260.586 351.359L256.33 316.842L269.534 316.843L269.533 351.36Z" fill="#FFB8B8"/>
<path d="M271.816 348.438L269.297 348.438L259.465 344.439L254.196 348.438H254.195C251.217 348.438 248.361 349.621 246.255 351.727C244.149 353.833 242.966 356.69 242.966 359.669V360.034L271.815 360.035L271.816 348.438Z" fill="#2F2E41"/>
<path d="M309.233 351.36L300.286 351.359L296.03 316.842L309.235 316.843L309.233 351.36Z" fill="#FFB8B8"/>
<path d="M311.515 348.438L308.997 348.438L299.165 344.439L293.895 348.438H293.895C290.917 348.438 288.061 349.621 285.955 351.727C283.849 353.833 282.666 356.69 282.666 359.669V360.034L311.515 360.035L311.515 348.438Z" fill="#2F2E41"/>
<path d="M322.875 202.68C322.875 202.68 323.92 215.22 321.308 227.237C318.697 239.254 318.697 273.098 318.697 273.098L312.951 339.047L295.713 337.48L291.011 227.237L274.296 264.333L275.863 269.558L273.775 270.864C273.775 270.864 275.34 281.052 274.296 281.052C273.251 281.052 270.639 282.619 270.639 282.619L272.728 336.435L254.968 335.912L248.7 260.153L255.49 216.787L256.013 208.428L258.363 208.524L259.56 205.031L261.759 199.023L322.875 202.68Z" fill="#2F2E41"/>
<path d="M323.779 205.314L323.872 205.183C328.844 198.221 321.366 181.49 320.238 179.064L324.988 177.522L323.919 168.427L323.412 164.372L327.043 160.741L327.053 160.65L329.142 142.364L332.18 130.218C333.325 125.626 333.227 120.813 331.898 116.271C330.568 111.73 328.054 107.624 324.613 104.376L317.591 97.7531L309.057 85.1226H295.294L290.575 94.0379C286 95.0955 281.941 97.7249 279.105 101.468C276.269 105.211 274.836 109.831 275.055 114.523L276.124 137.905L271.937 167.018L271.935 172.286L267.223 177.524L268.252 182.669L264.666 184.207L263.083 191.597C262.427 192.462 258.102 198.23 258.102 199.807C258.102 200.043 258.277 200.272 258.652 200.526C261.599 202.522 277.891 206.592 285.101 203.706C292.781 200.635 323.312 205.243 323.62 205.29L323.779 205.314Z" fill="#0071FF"/>
<path d="M300.397 89.5645C310.464 89.5645 318.624 81.4023 318.624 71.3337C318.624 61.2651 310.464 53.1029 300.397 53.1029C290.331 53.1029 282.171 61.2651 282.171 71.3337C282.171 81.4023 290.331 89.5645 300.397 89.5645Z" fill="#FFB8B8"/>
<path d="M298.651 89.8596C301.474 89.8307 304.289 89.5608 307.066 89.0526C309.815 88.4192 315.88 83.7281 317.533 80.9568C318.762 78.8977 319.499 75.7128 319.901 73.4038C320.444 70.3479 320.339 67.212 319.594 64.1992C318.848 61.1863 317.478 58.3637 315.573 55.914C314.838 54.8878 313.84 54.0792 312.683 53.5738C312.581 53.5369 312.476 53.5045 312.37 53.4772C310.694 53.082 309.174 52.1949 308.006 50.9296C307.779 50.6734 307.534 50.4339 307.273 50.2129C305.962 49.1633 304.422 48.4389 302.778 48.0988C300.121 47.4607 296.322 48.2603 291.485 50.4772C289.054 51.5911 286.357 51.2803 284.278 50.8852C284.162 50.8658 284.042 50.8772 283.931 50.9184C283.82 50.9596 283.722 51.029 283.647 51.1199C282.789 51.9685 281.641 52.4608 280.435 52.4978C279.696 52.5493 278.948 53.5927 278.045 54.9515C277.84 55.2599 277.601 55.6199 277.428 55.8395L277.393 55.427L276.987 55.8987C276.349 56.6401 275.908 57.5309 275.707 58.4884C275.505 59.4458 275.549 60.4387 275.835 61.3745C276.12 62.3103 276.638 63.1586 277.339 63.8405C278.041 64.5224 278.904 65.0156 279.847 65.2742C280.595 65.4528 281.36 65.5546 282.129 65.5778C282.595 65.6077 283.078 65.6385 283.541 65.7067C285.029 65.9716 286.423 66.6178 287.586 67.5823C288.75 68.5469 289.643 69.7967 290.18 71.2098C290.306 71.5363 290.506 71.8294 290.764 72.0664C291.022 72.3034 291.331 72.4779 291.667 72.5765C292.003 72.6751 292.357 72.6952 292.702 72.6352C293.047 72.5751 293.374 72.4366 293.657 72.2302C294.128 71.8437 294.685 71.5768 295.281 71.4522C295.877 71.3276 296.495 71.3492 297.081 71.5149C297.59 71.7814 297.993 72.215 298.221 72.743C298.496 73.3308 298.941 73.8231 299.497 74.1571C301.395 75.0745 301.635 79.3495 301.054 82.9334C300.494 86.3879 299.277 88.908 298.094 89.0616C297.182 89.1797 297.08 89.2473 297.018 89.4106L296.962 89.5568L297.068 89.6894C297.578 89.8593 298.118 89.9174 298.651 89.8596Z" fill="#2F2E41"/>
<path d="M283.529 139.6L274.768 128.434C265.844 130.892 250.009 145.01 250.009 145.01L217.49 159.125C216.404 158.943 215.29 159.049 214.259 159.435C213.228 159.82 212.317 160.47 211.617 161.319C210.917 162.169 210.453 163.188 210.272 164.274C210.091 165.36 210.199 166.474 210.585 167.505C210.972 168.536 211.623 169.446 212.473 170.145C213.323 170.844 214.342 171.307 215.428 171.487C216.514 171.667 217.628 171.557 218.658 171.17C219.688 170.782 220.598 170.13 221.296 169.279L263.896 157.391L283.529 139.6Z" fill="#FFB8B8"/>
<path d="M145.749 82.3733C154.657 82.3733 161.879 75.1501 161.879 66.2397C161.879 57.3294 154.657 50.1062 145.749 50.1062C136.84 50.1062 129.619 57.3294 129.619 66.2397C129.619 75.1501 136.84 82.3733 145.749 82.3733Z" fill="#A0616A"/>
<path d="M159.045 57.6682C160.299 58.6035 161.228 59.9084 161.701 61.3994C161.883 58.9628 161.894 56.5165 161.736 54.0784C161.545 52.3651 160.339 51.9797 158.943 51.5331C157.682 51.1297 156.256 50.6739 155.872 49.0107C150.802 44.0771 141.975 44.3259 135.935 46.0468C132.611 46.9938 130.698 48.2105 130.527 48.9232L130.492 49.07L130.357 49.1375C127.795 50.4188 127.296 54.465 127.329 57.6337C127.391 63.6036 129.452 70.384 130.613 70.9348C130.674 70.964 130.69 70.9526 130.717 70.9304C132.465 69.533 134.598 71.0366 135.535 71.8539C136.088 68.1435 137.868 64.7254 140.59 62.1455C143.313 59.5656 146.822 57.9727 150.556 57.6213C151.776 57.5034 152.985 57.3005 154.177 57.0141C154.781 56.8578 155.402 56.7762 156.026 56.7714C157.1 56.755 158.154 57.068 159.045 57.6682Z" fill="#2F2E41"/>
<path d="M281.43 142.153L295.253 126.739L296.021 115.817C296.164 113.673 295.704 111.531 294.694 109.634C293.684 107.737 292.163 106.16 290.304 105.082C287.774 103.638 284.79 103.208 281.955 103.88C279.121 104.553 276.647 106.276 275.035 108.703C270.15 116.066 264.895 126.021 267.599 131.634L267.626 131.691L281.43 142.153Z" fill="#0071FF"/>
<path d="M154.017 200.087L118.088 181.682C115.532 180.373 114.685 176.901 116.201 173.942L139.627 128.19C141.142 125.231 144.454 123.889 147.01 125.198L182.939 143.603C185.494 144.912 186.341 148.385 184.826 151.344L161.399 197.095C159.884 200.054 156.572 201.396 154.017 200.087Z" fill="#E6E6E6"/>
<path d="M147.878 191.626L123.467 179.122C121.074 177.896 120.281 174.644 121.7 171.872L141.162 133.863C142.581 131.092 145.683 129.835 148.076 131.061L177.559 146.164C179.953 147.39 180.746 150.642 179.327 153.413L168.754 174.062C162.433 186.406 158.539 197.088 147.878 191.626Z" fill="white"/>
<path d="M159.947 170.869L138.326 159.794C138.061 159.605 137.874 159.328 137.797 159.013C137.72 158.697 137.759 158.365 137.907 158.076C138.055 157.787 138.302 157.561 138.603 157.439C138.903 157.317 139.238 157.307 139.545 157.412L161.167 168.487C161.431 168.676 161.619 168.953 161.696 169.268C161.773 169.584 161.734 169.916 161.586 170.205C161.438 170.494 161.191 170.72 160.89 170.842C160.589 170.964 160.254 170.974 159.947 170.869Z" fill="#0071FF"/>
<path d="M140.85 167.028L135.916 164.5C135.651 164.312 135.464 164.035 135.387 163.719C135.31 163.404 135.349 163.071 135.497 162.782C135.645 162.493 135.892 162.267 136.193 162.145C136.494 162.023 136.828 162.014 137.136 162.118L142.07 164.646C142.334 164.834 142.522 165.111 142.599 165.427C142.676 165.742 142.637 166.075 142.489 166.364C142.341 166.653 142.094 166.879 141.793 167.001C141.492 167.123 141.157 167.132 140.85 167.028Z" fill="#0071FF"/>
<path d="M147.179 176.211L133.506 169.207C133.242 169.019 133.054 168.741 132.977 168.426C132.9 168.11 132.939 167.778 133.087 167.489C133.235 167.2 133.482 166.974 133.783 166.852C134.084 166.73 134.418 166.72 134.726 166.825L148.399 173.829C148.663 174.017 148.851 174.295 148.928 174.61C149.005 174.926 148.966 175.258 148.818 175.547C148.67 175.836 148.423 176.062 148.122 176.184C147.821 176.306 147.486 176.316 147.179 176.211V176.211Z" fill="#0071FF"/>
<path d="M168.503 154.16L146.882 143.084C146.617 142.896 146.43 142.618 146.353 142.303C146.276 141.987 146.315 141.655 146.463 141.366C146.611 141.077 146.858 140.851 147.159 140.729C147.46 140.607 147.794 140.597 148.102 140.702L169.723 151.777C169.987 151.966 170.175 152.243 170.252 152.558C170.329 152.874 170.29 153.207 170.142 153.496C169.994 153.784 169.747 154.011 169.446 154.133C169.145 154.254 168.81 154.264 168.503 154.16Z" fill="#0071FF"/>
<path d="M149.406 150.318L144.472 147.791C144.207 147.602 144.02 147.325 143.943 147.009C143.866 146.694 143.905 146.361 144.053 146.072C144.201 145.783 144.448 145.557 144.749 145.435C145.05 145.313 145.384 145.304 145.692 145.408L150.626 147.936C150.89 148.124 151.078 148.402 151.155 148.717C151.232 149.032 151.193 149.365 151.045 149.654C150.897 149.943 150.65 150.169 150.349 150.291C150.048 150.413 149.713 150.423 149.406 150.318Z" fill="#0071FF"/>
<path d="M155.735 159.501L142.062 152.497C141.798 152.309 141.61 152.031 141.533 151.716C141.456 151.401 141.495 151.068 141.643 150.779C141.791 150.49 142.038 150.264 142.339 150.142C142.64 150.02 142.974 150.01 143.282 150.115L156.955 157.119C157.219 157.308 157.407 157.585 157.484 157.9C157.561 158.216 157.522 158.548 157.374 158.837C157.226 159.126 156.979 159.352 156.678 159.474C156.377 159.596 156.042 159.606 155.735 159.501L155.735 159.501Z" fill="#0071FF"/>
<path d="M124.244 160.256L116.127 130.032L137.817 125.925L136.651 146.671L165.15 176.022C166.659 175.96 168.153 176.339 169.451 177.112C170.748 177.885 171.792 179.019 172.456 180.375C173.121 181.732 173.376 183.252 173.191 184.751C173.006 186.25 172.389 187.663 171.416 188.817C170.442 189.972 169.153 190.818 167.707 191.253C166.261 191.687 164.72 191.692 163.271 191.265C161.823 190.839 160.529 190 159.549 188.851C158.569 187.702 157.944 186.293 157.751 184.795L124.244 160.256Z" fill="#A0616A"/>
<path d="M113.907 96.1445C106.545 101.958 115.995 134.477 115.995 134.477C117.458 132.871 119.158 156.606 120.946 155.798C126.029 153.501 135.344 145.58 138.936 146.226C140.99 146.595 138.838 130.526 138.838 130.526C138.838 130.526 138.442 121.312 137.698 109.468C137.55 106.115 136.556 102.855 134.809 99.99C133.062 97.125 130.619 94.7486 127.707 93.0822C127.707 93.0822 121.27 90.3309 113.907 96.1445Z" fill="#3F3D56"/>
<path d="M236.412 227.341L216.806 218.081C216.387 217.884 216.018 217.595 215.726 217.235C215.434 216.874 215.228 216.453 215.123 216.002C215.016 215.561 215.012 215.101 215.108 214.657C215.205 214.214 215.401 213.798 215.681 213.441C221.361 206.181 225.26 197.691 227.068 188.652C227.204 187.959 227.577 187.336 228.121 186.888C228.666 186.44 229.349 186.194 230.055 186.193C240.054 186.227 247.528 189.879 252.266 197.046C252.516 197.419 252.682 197.842 252.752 198.285C252.821 198.729 252.793 199.182 252.67 199.614C249.926 209.073 245.751 218.057 240.289 226.253C239.884 226.872 239.268 227.324 238.555 227.524C237.842 227.724 237.081 227.659 236.412 227.341Z" fill="#E6E6E6"/>
<path d="M242.18 214.353L227.189 207.273C226.816 207.096 226.528 206.779 226.389 206.391C226.25 206.003 226.271 205.575 226.447 205.202C226.623 204.829 226.94 204.541 227.328 204.402C227.716 204.263 228.144 204.283 228.517 204.46L243.508 211.54C243.693 211.627 243.858 211.75 243.996 211.901C244.133 212.053 244.239 212.229 244.308 212.422C244.377 212.614 244.407 212.818 244.397 213.022C244.387 213.226 244.337 213.426 244.25 213.611C244.163 213.796 244.04 213.961 243.889 214.099C243.738 214.236 243.561 214.342 243.369 214.411C243.177 214.48 242.973 214.51 242.769 214.5C242.565 214.49 242.365 214.44 242.18 214.353H242.18Z" fill="white"/>
<path d="M244.509 209.42L229.518 202.34C229.145 202.164 228.857 201.846 228.718 201.458C228.579 201.07 228.599 200.642 228.775 200.269C228.952 199.896 229.269 199.608 229.657 199.469C230.045 199.33 230.473 199.351 230.846 199.527L245.837 206.607C246.21 206.783 246.498 207.1 246.637 207.489C246.776 207.877 246.755 208.305 246.579 208.678C246.403 209.051 246.086 209.339 245.698 209.478C245.309 209.617 244.882 209.596 244.509 209.42V209.42Z" fill="white"/>
<path d="M224.477 54.5701L223.082 54.723C216.86 30.2676 204.8 13.3252 188.204 5.727C167.108 -3.93164 141.02 2.55432 114.748 23.9904C88.3424 45.5359 64.9664 79.5684 48.9268 119.82L47.5728 119.201C63.6828 78.7728 87.1788 44.5758 113.732 22.9106C140.419 1.13579 167.039 -5.39773 188.688 4.51381C205.759 12.3297 218.135 29.639 224.477 54.5701Z" fill="#F2F2F2"/>
<path d="M70.5224 86.4201C66.8731 94.1095 63.402 102.076 60.2054 110.097C41.8108 156.259 32.4892 203.402 33.251 246.432L31.8133 246.279C31.0508 203.088 40.3992 155.783 58.8514 109.478C62.0571 101.433 65.5381 93.4446 69.1979 85.7335L70.5224 86.4201Z" fill="#F2F2F2"/>
<path d="M69.8325 118.138C66.1831 125.828 62.712 133.794 59.5155 141.816C41.1209 187.977 31.7993 235.12 32.561 278.15L31.1234 277.997C30.3609 234.806 39.7093 187.501 58.1615 141.196C61.3672 133.152 64.8482 125.163 68.508 117.452L69.8325 118.138Z" fill="#F2F2F2"/>
<path d="M31.1924 129.674C32.7816 127.284 31.841 123.864 29.0914 122.035C26.3418 120.205 22.8246 120.659 21.2353 123.048C19.6461 125.437 20.5867 128.857 23.3363 130.687C26.0859 132.517 29.6032 132.063 31.1924 129.674Z" fill="#CCCCCC"/>
<path d="M369.599 215.956C371.188 213.567 370.248 210.147 367.498 208.317C364.749 206.488 361.231 206.941 359.642 209.33C358.053 211.72 358.994 215.14 361.743 216.969C364.493 218.799 368.01 218.346 369.599 215.956Z" fill="#CCCCCC"/>
</g>
<defs>
<clipPath id="clip0_87_661">
<rect width="445" height="361" fill="white"/>
</clipPath>
</defs>
</svg>
