<svg id="visual" viewBox="0 0 1920 1080" width="1920" height="1080" xmlns="http://www.w3.org/2000/svg" xmlns:xlink="http://www.w3.org/1999/xlink" version="1.1"><path d="M0 303L29.2 328.3C58.3 353.7 116.7 404.3 174.8 386.3C233 368.3 291 281.7 349.2 279.8C407.3 278 465.7 361 523.8 406C582 451 640 458 698.2 440C756.3 422 814.7 379 872.8 386.3C931 393.7 989 451.3 1047.2 454.8C1105.3 458.3 1163.7 407.7 1221.8 375.2C1280 342.7 1338 328.3 1396.2 330.2C1454.3 332 1512.7 350 1570.8 357.2C1629 364.3 1687 360.7 1745.2 378.7C1803.3 396.7 1861.7 436.3 1890.8 456.2L1920 476L1920 0L1890.8 0C1861.7 0 1803.3 0 1745.2 0C1687 0 1629 0 1570.8 0C1512.7 0 1454.3 0 1396.2 0C1338 0 1280 0 1221.8 0C1163.7 0 1105.3 0 1047.2 0C989 0 931 0 872.8 0C814.7 0 756.3 0 698.2 0C640 0 582 0 523.8 0C465.7 0 407.3 0 349.2 0C291 0 233 0 174.8 0C116.7 0 58.3 0 29.2 0L0 0Z" fill="#1c6292"></path><path d="M0 789L29.2 758.5C58.3 728 116.7 667 174.8 656.3C233 645.7 291 685.3 349.2 710.5C407.3 735.7 465.7 746.3 523.8 746.3C582 746.3 640 735.7 698.2 708.7C756.3 681.7 814.7 638.3 872.8 658C931 677.7 989 760.3 1047.2 776.5C1105.3 792.7 1163.7 742.3 1221.8 724.3C1280 706.3 1338 720.7 1396.2 700.8C1454.3 681 1512.7 627 1570.8 609C1629 591 1687 609 1745.2 636C1803.3 663 1861.7 699 1890.8 717L1920 735L1920 474L1890.8 454.2C1861.7 434.3 1803.3 394.7 1745.2 376.7C1687 358.7 1629 362.3 1570.8 355.2C1512.7 348 1454.3 330 1396.2 328.2C1338 326.3 1280 340.7 1221.8 373.2C1163.7 405.7 1105.3 456.3 1047.2 452.8C989 449.3 931 391.7 872.8 384.3C814.7 377 756.3 420 698.2 438C640 456 582 449 523.8 404C465.7 359 407.3 276 349.2 277.8C291 279.7 233 366.3 174.8 384.3C116.7 402.3 58.3 351.7 29.2 326.3L0 301Z" fill="#2479b5"></path><path d="M0 995L29.2 986C58.3 977 116.7 959 174.8 937.3C233 915.7 291 890.3 349.2 890.3C407.3 890.3 465.7 915.7 523.8 919.3C582 923 640 905 698.2 892.3C756.3 879.7 814.7 872.3 872.8 888.5C931 904.7 989 944.3 1047.2 958.7C1105.3 973 1163.7 962 1221.8 947.5C1280 933 1338 915 1396.2 897C1454.3 879 1512.7 861 1570.8 871.8C1629 882.7 1687 922.3 1745.2 940.3C1803.3 958.3 1861.7 954.7 1890.8 952.8L1920 951L1920 733L1890.8 715C1861.7 697 1803.3 661 1745.2 634C1687 607 1629 589 1570.8 607C1512.7 625 1454.3 679 1396.2 698.8C1338 718.7 1280 704.3 1221.8 722.3C1163.7 740.3 1105.3 790.7 1047.2 774.5C989 758.3 931 675.7 872.8 656C814.7 636.3 756.3 679.7 698.2 706.7C640 733.7 582 744.3 523.8 744.3C465.7 744.3 407.3 733.7 349.2 708.5C291 683.3 233 643.7 174.8 654.3C116.7 665 58.3 726 29.2 756.5L0 787Z" fill="#4590cc"></path><path d="M0 1081L29.2 1081C58.3 1081 116.7 1081 174.8 1081C233 1081 291 1081 349.2 1081C407.3 1081 465.7 1081 523.8 1081C582 1081 640 1081 698.2 1081C756.3 1081 814.7 1081 872.8 1081C931 1081 989 1081 1047.2 1081C1105.3 1081 1163.7 1081 1221.8 1081C1280 1081 1338 1081 1396.2 1081C1454.3 1081 1512.7 1081 1570.8 1081C1629 1081 1687 1081 1745.2 1081C1803.3 1081 1861.7 1081 1890.8 1081L1920 1081L1920 949L1890.8 950.8C1861.7 952.7 1803.3 956.3 1745.2 938.3C1687 920.3 1629 880.7 1570.8 869.8C1512.7 859 1454.3 877 1396.2 895C1338 913 1280 931 1221.8 945.5C1163.7 960 1105.3 971 1047.2 956.7C989 942.3 931 902.7 872.8 886.5C814.7 870.3 756.3 877.7 698.2 890.3C640 903 582 921 523.8 917.3C465.7 913.7 407.3 888.3 349.2 888.3C291 888.3 233 913.7 174.8 935.3C116.7 957 58.3 975 29.2 984L0 993Z" fill="#6ea7d7"></path></svg>